<?xml version="1.0" encoding="utf-8"?>
<!-- Generator: Adobe Illustrator 16.0.0, SVG Export Plug-In . SVG Version: 6.00 Build 0)  -->
<!DOCTYPE svg PUBLIC "-//W3C//DTD SVG 1.1//EN" "http://www.w3.org/Graphics/SVG/1.1/DTD/svg11.dtd">
<svg version="1.1" id="Layer_1" xmlns="http://www.w3.org/2000/svg" xmlns:xlink="http://www.w3.org/1999/xlink" x="0px" y="0px"
	 width="512px" height="512px" viewBox="0 0 512 512" enable-background="new 0 0 512 512" xml:space="preserve">
<g id="_x32_5_code_x2C__program_x2C__programming_x2C__develop_x2C__bug_x2C__search_x2C__developer_1_">
	<g>
		<path fill="#656D78" d="M504.254,447.445l-87.164-87.162l-16.961,16.961l87.211,87.209c4.686,4.686,12.283,4.686,16.961,0
			c4.693-4.686,4.693-12.275,0.008-16.961C504.293,447.477,504.27,447.461,504.254,447.445z"/>
	</g>
	<g opacity="0.3">
		<path fill="#FFFFFF" d="M492.993,458.801l-87.21-87.211l-5.654,5.654l87.211,87.209c4.686,4.686,12.283,4.686,16.961,0
			c0.999-1,1.741-2.139,2.311-3.342C502.161,463.221,496.687,462.486,492.993,458.801z"/>
	</g>
	<g>
		<polygon fill="#AC92EC" points="425.274,347.914 4.17,347.914 4.17,60.042 435.973,60.042 435.973,326.471 		"/>
	</g>
	<g opacity="0.3">
		<polygon points="435.426,246.612 427.43,246.612 427.43,60.042 435.418,60.042 		"/>
	</g>
	<g>
		<path fill="#5D9CEC" d="M443.961,283.943c0,66.234-53.694,119.928-119.938,119.928c-66.251,0-119.945-53.693-119.938-119.928
			c-0.008-66.248,53.687-119.95,119.938-119.95C390.267,163.994,443.961,217.696,443.961,283.943z"/>
	</g>
	<g opacity="0.4">
		<path fill="#FFFFFF" d="M220.079,283.943c0-63.546,49.446-115.413,111.94-119.543c-2.654-0.18-5.302-0.406-7.996-0.406
			c-66.251,0-119.945,53.702-119.938,119.95c-0.008,66.234,53.687,119.928,119.938,119.928c2.702,0,5.342-0.219,7.996-0.404
			C269.525,399.342,220.079,347.477,220.079,283.943z"/>
	</g>
	<g>
		<polygon fill="#CCD1D9" points="20.163,347.914 4.17,347.914 4.17,60.042 20.155,60.042 		"/>
	</g>
	<g>
		<path fill="#A0D468" d="M435.973,60.042v-7.997c0-4.396-3.601-7.997-7.996-7.997H12.166c-4.404,0-7.996,3.592-7.996,8.004v7.989
			H435.973z"/>
	</g>
	<g>
		<path fill="#A0D468" d="M356.009,291.924c0,22.098-14.321,39.996-31.985,39.996s-31.993-17.898-31.985-39.98
			c0-22.084,14.321-39.986,31.985-39.986S356.001,269.855,356.009,291.924z"/>
	</g>
	<g opacity="0.4">
		<path fill="#FFFFFF" d="M300.035,291.939c0-20.367,12.229-36.996,27.986-39.479c-1.327-0.219-2.639-0.507-3.998-0.507
			c-17.664,0-31.985,17.902-31.985,39.986c-0.008,22.082,14.321,39.98,31.985,39.98c1.367,0,2.671-0.312,3.99-0.5
			C312.264,328.922,300.035,312.305,300.035,291.939z"/>
	</g>
	<g opacity="0.2">
		<path d="M348.013,291.924c0-20.352-12.229-36.988-27.987-39.463c1.328-0.211,2.632-0.507,3.998-0.507
			c17.664,0,31.978,17.902,31.985,39.97c0,22.098-14.321,39.996-31.985,39.996c-1.366,0-2.67-0.297-3.998-0.5
			C335.784,328.922,348.013,312.305,348.013,291.924z"/>
	</g>
	<g opacity="0.4">
		<polygon fill="#FFFFFF" points="28.159,347.914 20.163,347.914 20.155,60.042 28.159,60.042 		"/>
	</g>
	<g id="_x32_5_code_x2C__program_x2C__programming_x2C__develop_x2C__bug_x2C__search_x2C__developer">
		<g>
			<path fill="#3A3847" d="M20.405,56.043c-2.21,0-4.038-1.789-4.038-3.998c0-2.21,1.75-3.999,3.952-3.999h0.086
				c2.202,0,3.998,1.789,3.998,3.999C24.403,54.254,22.607,56.043,20.405,56.043z"/>
		</g>
		<g>
			<path fill="#3A3847" d="M36.397,56.043c-2.21,0-4.037-1.789-4.037-3.998c0-2.21,1.749-3.999,3.951-3.999h0.086
				c2.202,0,3.998,1.789,3.998,3.999C40.396,54.254,38.6,56.043,36.397,56.043z"/>
		</g>
		<g>
			<path fill="#3A3847" d="M52.39,56.043c-2.21,0-4.038-1.789-4.038-3.998c0-2.21,1.75-3.999,3.952-3.999h0.086
				c2.202,0,3.998,1.789,3.998,3.999C56.388,54.254,54.592,56.043,52.39,56.043z"/>
		</g>
		<g>
			<path fill="#3A3847" d="M435.973,64.04H4.17c-2.21,0-3.998-1.789-3.998-3.998v-7.989c0-6.614,5.38-12.002,11.994-12.002h415.811
				c6.613,0,11.994,5.38,11.994,11.995v7.997C439.971,62.251,438.183,64.04,435.973,64.04z M8.168,56.043h423.807v-3.998
				c0-2.171-1.828-3.999-3.998-3.999H12.166c-2.202,0-3.998,1.796-3.998,4.006V56.043z"/>
		</g>
		<g>
			<path fill="#3A3847" d="M435.965,199.977L435.965,199.977c-2.21,0-3.998-1.788-3.998-3.998l0.008-135.938
				c0-2.21,1.788-3.999,3.998-3.999l0,0c2.21,0,3.998,1.789,3.998,3.999l-0.008,135.938
				C439.963,198.189,438.175,199.977,435.965,199.977z"/>
		</g>
		<g>
			<path fill="#3A3847" d="M4.17,351.912c-2.21,0-3.998-1.797-3.998-3.998V60.042c0-2.21,1.788-3.999,3.998-3.999
				s3.998,1.789,3.998,3.999v287.873C8.168,350.115,6.38,351.912,4.17,351.912z"/>
		</g>
		<g>
			<path fill="#3A3847" d="M4.17,351.912c-2.21,0-3.998-1.797-3.998-3.998c0-2.219,1.788-4,3.998-4l191.912-0.016
				c2.21,0,3.998,1.797,3.998,4c0,2.217-1.788,3.998-3.998,3.998L4.17,351.912z"/>
		</g>
		<g>
			<path fill="#3A3847" d="M20.163,351.912c-2.21,0-3.998-1.797-3.998-3.998L16.157,60.042c0-2.21,1.788-3.999,3.998-3.999
				s3.999,1.789,3.999,3.999l0.008,287.873C24.161,350.115,22.373,351.912,20.163,351.912z"/>
		</g>
		<g>
			<path fill="#3A3847" d="M12.166,88.028H4.17c-2.21,0-3.998-1.789-3.998-3.998c0-2.21,1.788-3.999,3.998-3.999h7.996
				c2.21,0,3.999,1.789,3.999,3.999C16.165,86.24,14.376,88.028,12.166,88.028z"/>
		</g>
		<g>
			<path fill="#3A3847" d="M12.166,112.017H4.17c-2.21,0-3.998-1.788-3.998-3.998s1.788-3.998,3.998-3.998h7.996
				c2.21,0,3.999,1.788,3.999,3.998S14.376,112.017,12.166,112.017z"/>
		</g>
		<g>
			<path fill="#3A3847" d="M12.166,136.006H4.17c-2.21,0-3.998-1.788-3.998-3.998s1.788-3.998,3.998-3.998h7.996
				c2.21,0,3.999,1.788,3.999,3.998S14.376,136.006,12.166,136.006z"/>
		</g>
		<g>
			<path fill="#3A3847" d="M4.17,160.003c-2.21,0-3.998-1.789-3.998-3.998c0-2.202,1.788-3.999,3.99-3.999l7.996-0.008
				c0.008,0,0.008,0,0.008,0c2.21,0,3.999,1.789,3.999,3.991c0,2.209-1.789,4.006-3.991,4.006l-7.996,0.008
				C4.17,160.003,4.17,160.003,4.17,160.003z"/>
		</g>
		<g>
			<path fill="#3A3847" d="M12.166,183.984H4.17c-2.21,0-3.998-1.788-3.998-3.998s1.788-3.999,3.998-3.999h7.996
				c2.21,0,3.999,1.789,3.999,3.999S14.376,183.984,12.166,183.984z"/>
		</g>
		<g>
			<path fill="#3A3847" d="M12.166,207.973H4.17c-2.21,0-3.998-1.788-3.998-3.998s1.788-3.998,3.998-3.998h7.996
				c2.21,0,3.999,1.788,3.999,3.998S14.376,207.973,12.166,207.973z"/>
		</g>
		<g>
			<path fill="#3A3847" d="M12.166,231.962H4.17c-2.21,0-3.998-1.788-3.998-3.998s1.788-3.998,3.998-3.998h7.996
				c2.21,0,3.999,1.788,3.999,3.998S14.376,231.962,12.166,231.962z"/>
		</g>
		<g>
			<path fill="#3A3847" d="M4.17,255.959c-2.21,0-3.998-1.788-3.998-3.998c0-2.202,1.788-3.999,3.99-3.999l7.996-0.008
				c0.008,0,0.008,0,0.008,0c2.21,0,3.999,1.789,3.999,3.991c0,2.21-1.789,4.006-3.991,4.006l-7.996,0.008
				C4.17,255.959,4.17,255.959,4.17,255.959z"/>
		</g>
		<g>
			<path fill="#3A3847" d="M12.166,279.943H4.17c-2.21,0-3.998-1.795-3.998-3.998c0-2.217,1.788-3.998,3.998-3.998h7.996
				c2.21,0,3.999,1.781,3.999,3.998C16.165,278.148,14.376,279.943,12.166,279.943z"/>
		</g>
		<g>
			<path fill="#3A3847" d="M12.166,303.934H4.17c-2.21,0-3.998-1.797-3.998-3.998c0-2.219,1.788-3.998,3.998-3.998h7.996
				c2.21,0,3.999,1.779,3.999,3.998C16.165,302.137,14.376,303.934,12.166,303.934z"/>
		</g>
		<g>
			<path fill="#3A3847" d="M12.166,327.922H4.17c-2.21,0-3.998-1.795-3.998-3.998c0-2.217,1.788-3.998,3.998-3.998h7.996
				c2.21,0,3.999,1.781,3.999,3.998C16.165,326.127,14.376,327.922,12.166,327.922z"/>
		</g>
		<g>
			<g>
				<path fill="#3A3847" d="M76.137,88.028H44.144c-2.21,0-3.998-1.789-3.998-3.998c0-2.21,1.788-3.999,3.998-3.999h31.993
					c2.21,0,3.999,1.789,3.999,3.999C80.135,86.24,78.347,88.028,76.137,88.028z"/>
			</g>
			<g>
				<path fill="#3A3847" d="M220.071,112.017H108.122c-2.209,0-3.998-1.788-3.998-3.998s1.789-3.998,3.998-3.998h111.949
					c2.21,0,3.998,1.788,3.998,3.998S222.281,112.017,220.071,112.017z"/>
			</g>
			<g>
				<path fill="#3A3847" d="M92.13,112.017H52.148c-2.21,0-3.998-1.788-3.998-3.998s1.788-3.998,3.998-3.998H92.13
					c2.21,0,3.998,1.788,3.998,3.998S94.34,112.017,92.13,112.017z"/>
			</g>
			<g>
				<path fill="#3A3847" d="M316.027,136.006H212.075c-2.209,0-3.998-1.788-3.998-3.998s1.789-3.998,3.998-3.998h103.953
					c2.21,0,3.998,1.788,3.998,3.998S318.237,136.006,316.027,136.006z"/>
			</g>
			<g>
				<path fill="#3A3847" d="M364.006,136.006H332.02c-2.209,0-3.998-1.788-3.998-3.998s1.789-3.998,3.998-3.998h31.986
					c2.209,0,3.998,1.788,3.998,3.998S366.215,136.006,364.006,136.006z"/>
			</g>
			<g>
				<path fill="#3A3847" d="M196.082,136.006H60.145c-2.21,0-3.998-1.788-3.998-3.998s1.788-3.998,3.998-3.998h135.938
					c2.21,0,3.998,1.788,3.998,3.998S198.292,136.006,196.082,136.006z"/>
			</g>
			<g>
				<path fill="#3A3847" d="M84.133,183.984H60.145c-2.21,0-3.998-1.788-3.998-3.998s1.788-3.999,3.998-3.999h23.989
					c2.21,0,3.999,1.789,3.999,3.999S86.343,183.984,84.133,183.984z"/>
			</g>
			<g>
				<path fill="#3A3847" d="M218.822,183.984H100.126c-2.21,0-3.998-1.788-3.998-3.998s1.788-3.999,3.998-3.999h118.696
					c2.21,0,3.998,1.789,3.998,3.999S221.032,183.984,218.822,183.984z"/>
			</g>
			<g>
				<path fill="#3A3847" d="M252.057,159.996H68.141c-2.21,0-3.998-1.789-3.998-3.998c0-2.21,1.788-3.999,3.998-3.999h183.916
					c2.21,0,3.998,1.789,3.998,3.999C256.055,158.207,254.267,159.996,252.057,159.996z"/>
			</g>
			<g>
				<path fill="#3A3847" d="M212.075,207.973h-39.982c-2.209,0-3.998-1.788-3.998-3.998s1.789-3.998,3.998-3.998h39.982
					c2.21,0,3.999,1.788,3.999,3.998S214.285,207.973,212.075,207.973z"/>
			</g>
			<g>
				<path fill="#3A3847" d="M188.078,231.962H52.148c-2.21,0-3.998-1.788-3.998-3.998s1.788-3.998,3.998-3.998h135.93
					c2.21,0,3.998,1.788,3.998,3.998S190.288,231.962,188.078,231.962z"/>
			</g>
			<g>
				<path fill="#3A3847" d="M132.111,279.943H52.148c-2.21,0-3.998-1.795-3.998-3.998c0-2.217,1.788-3.998,3.998-3.998h79.963
					c2.21,0,3.998,1.781,3.998,3.998C136.109,278.148,134.321,279.943,132.111,279.943z"/>
			</g>
			<g>
				<path fill="#3A3847" d="M52.148,303.934c-2.21,0-3.998-1.781-3.998-3.998c0-2.203,1.788-3.998,3.998-3.998h63.971
					c2.21,0,3.999,1.779,3.999,3.998c0,2.201-1.789,3.998-3.999,3.998H52.148z"/>
			</g>
			<g>
				<path fill="#3A3847" d="M188.078,255.952h-23.981c-2.21,0-3.998-1.788-3.998-3.998s1.788-3.999,3.998-3.999h23.981
					c2.21,0,3.998,1.789,3.998,3.999S190.288,255.952,188.078,255.952z"/>
			</g>
			<g>
				<path fill="#3A3847" d="M148.104,255.952H60.145c-2.21,0-3.998-1.788-3.998-3.998s1.788-3.999,3.998-3.999h87.959
					c2.21,0,3.999,1.789,3.999,3.999S150.314,255.952,148.104,255.952z"/>
			</g>
			<g>
				<path fill="#3A3847" d="M76.129,327.922H44.151c-2.21,0-3.998-1.795-3.998-3.998c0-2.217,1.788-3.998,3.998-3.998h31.978
					c2.21,0,3.999,1.781,3.999,3.998C80.127,326.127,78.339,327.922,76.129,327.922z"/>
			</g>
			<g>
				<path fill="#3A3847" d="M156.101,207.981L156.101,207.981l-95.956-0.008c-2.21,0-3.998-1.788-3.998-3.998
					s1.788-3.998,3.998-3.998l0,0l95.956,0.008c2.21,0,3.998,1.788,3.998,3.998S158.311,207.981,156.101,207.981z"/>
			</g>
		</g>
		<g>
			<path fill="#3A3847" d="M323.797,407.885c-33.109,0-64.236-12.883-87.647-36.295c-48.313-48.338-48.306-126.977,0.008-175.298
				c23.411-23.411,54.53-36.296,87.64-36.296c33.103,0,64.229,12.885,87.64,36.296c48.306,48.321,48.306,126.96,0,175.298
				C388.025,395.002,356.907,407.885,323.797,407.885z M323.797,167.992c-30.97,0-60.09,12.057-81.985,33.953
				c-45.198,45.206-45.198,118.778-0.008,163.991c21.903,21.896,51.023,33.953,81.993,33.953c30.971,0,60.09-12.057,81.986-33.953
				c45.19-45.213,45.19-118.785,0-163.991C383.879,180.049,354.768,167.992,323.797,167.992z"/>
		</g>
		<g>
			<path fill="#3A3847" d="M487.355,468.451c-1.023,0-2.047-0.391-2.827-1.17l-76.895-76.871c-1.562-1.562-1.562-4.092,0-5.654
				s4.092-1.562,5.653,0l76.895,76.871c1.562,1.562,1.562,4.092,0,5.654C489.401,468.061,488.378,468.451,487.355,468.451z"/>
		</g>
		<g>
			<path fill="#3A3847" d="M504.309,451.49c-1.023,0-2.047-0.391-2.827-1.17l-76.879-76.871c-1.562-1.562-1.562-4.092,0-5.654
				s4.092-1.562,5.653,0l76.879,76.871c1.562,1.561,1.562,4.092,0,5.654C506.354,451.1,505.331,451.49,504.309,451.49z"/>
		</g>
		<g>
			<path fill="#3A3847" d="M495.836,471.949c-4.092,0-8.191-1.561-11.308-4.668c-1.562-1.562-1.562-4.092,0-5.654
				s4.092-1.562,5.653,0c3.124,3.123,8.184,3.123,11.308,0c1.507-1.516,2.343-3.529,2.343-5.654c0-2.139-0.836-4.139-2.351-5.652
				c-1.562-1.562-1.562-4.094,0-5.654c1.562-1.562,4.092-1.562,5.653,0c3.022,3.014,4.693,7.027,4.693,11.307
				c0,4.264-1.663,8.277-4.686,11.309C504.027,470.389,499.928,471.949,495.836,471.949z"/>
		</g>
		<g>
			<g>
				<path fill="#3A3847" d="M324.023,335.918c-9.784,0-18.929-4.701-25.738-13.213c-6.614-8.262-10.253-19.193-10.245-30.766
					c0-24.256,16.142-43.984,35.983-43.984c19.835,0,35.976,19.729,35.983,43.969C360.007,316.178,343.866,335.918,324.023,335.918z
					 M324.023,255.952c-15.43,0-27.987,16.136-27.987,35.988c0,9.775,3.015,18.928,8.488,25.77
					c5.271,6.59,12.198,10.213,19.499,10.213c15.431,0,27.987-16.148,27.987-35.998
					C352.003,272.088,339.446,255.952,324.023,255.952z"/>
			</g>
			<g>
				<path fill="#3A3847" d="M355.369,287.941h-62.69c-2.21,0-3.998-1.797-3.998-3.998c0-2.219,1.788-4,3.998-4h62.69
					c2.209,0,3.998,1.781,3.998,4C359.367,286.145,357.578,287.941,355.369,287.941z"/>
			</g>
			<g>
				<path fill="#3A3847" d="M324.023,335.918c-2.21,0-3.998-1.795-3.998-3.998v-47.977c0-2.219,1.788-4,3.998-4s3.998,1.781,3.998,4
					v47.977C328.021,334.123,326.233,335.918,324.023,335.918z"/>
			</g>
			<g>
				<path fill="#3A3847" d="M332.02,247.955c-1.022,0-2.046-0.39-2.826-1.171c-1.562-1.562-1.562-4.092,0-5.653l15.992-15.993
					c1.562-1.562,4.092-1.562,5.654,0c1.562,1.562,1.562,4.092,0,5.654l-15.993,15.993
					C334.066,247.565,333.043,247.955,332.02,247.955z"/>
			</g>
			<g>
				<path fill="#3A3847" d="M316.027,247.955c-1.023,0-2.046-0.39-2.827-1.171l-15.992-15.993c-1.562-1.562-1.562-4.092,0-5.654
					c1.562-1.562,4.092-1.562,5.653,0l15.992,15.993c1.562,1.562,1.562,4.092,0,5.653
					C318.073,247.565,317.051,247.955,316.027,247.955z"/>
			</g>
			<g>
				<path fill="#3A3847" d="M372.002,295.922h-7.996c-2.211,0-3.999-1.781-3.999-3.998c0-2.203,1.788-3.998,3.999-3.998h7.996
					c2.209,0,3.998,1.795,3.998,3.998C376,294.141,374.211,295.922,372.002,295.922z"/>
			</g>
			<g>
				<path fill="#3A3847" d="M364.029,279.943c-0.109,0-0.203,0-0.273-0.016c-2.203-0.139-3.882-2.029-3.741-4.232
					c0.125-2.014,1.71-3.576,3.663-3.732c0.538-0.344,4.326-3.326,4.326-20.009c0-2.21,1.788-3.999,3.998-3.999
					c2.209,0,3.998,1.789,3.998,3.999c0,12.919-2.187,21.509-6.497,25.554C367.199,279.68,364.974,279.943,364.029,279.943z"/>
			</g>
			<g>
				<path fill="#3A3847" d="M372.002,335.902c-2.21,0-3.998-1.779-3.998-3.998c0-17.883-4.35-20.021-4.396-20.037
					c-2.141,0-3.772-1.516-3.912-3.717c-0.141-2.203,1.857-4.076,4.061-4.217c0.655-0.109,3.178,0,5.747,2.42
					c4.311,4.045,6.497,12.635,6.497,25.551C376,334.123,374.211,335.902,372.002,335.902z"/>
			</g>
			<g>
				<path fill="#3A3847" d="M284.042,295.938h-7.996c-2.21,0-3.999-1.797-3.999-3.998c0-2.219,1.789-3.998,3.999-3.998h7.996
					c2.21,0,3.998,1.779,3.998,3.998C288.04,294.141,286.252,295.938,284.042,295.938z"/>
			</g>
			<g>
				<path fill="#3A3847" d="M276.046,335.918c-2.21,0-3.999-1.795-3.999-3.998c-0.008-12.916,2.18-21.506,6.49-25.566
					c2.568-2.404,5.044-2.498,5.755-2.42c2.202,0.141,3.881,2.045,3.74,4.248c-0.125,1.998-1.71,3.576-3.662,3.732
					c-0.539,0.328-4.334,3.311-4.326,20.006C280.044,334.123,278.256,335.918,276.046,335.918z"/>
			</g>
			<g>
				<path fill="#3A3847" d="M284.011,279.943c-0.945,0-3.171-0.264-5.474-2.42c-4.311-4.045-6.498-12.65-6.498-25.562
					c0-2.21,1.789-3.999,3.999-3.999s3.998,1.789,3.998,3.999c0,17.878,4.35,20.017,4.396,20.033c2.187,0,3.771,1.516,3.912,3.732
					c0.141,2.203-1.858,4.076-4.061,4.217C284.214,279.943,284.12,279.943,284.011,279.943z"/>
			</g>
		</g>
	</g>
</g>
</svg>
