<?xml version="1.0" encoding="iso-8859-1"?>
<!-- Generator: Adobe Illustrator 19.0.0, SVG Export Plug-In . SVG Version: 6.00 Build 0)  -->
<svg xmlns="http://www.w3.org/2000/svg" xmlns:xlink="http://www.w3.org/1999/xlink" version="1.1" id="Layer_1" x="0px" y="0px" viewBox="0 0 511.998 511.998" style="enable-background:new 0 0 511.998 511.998;" xml:space="preserve">
<g>
	<path style="fill:#EE534F;" d="M157.663,152.725c0,0-92.344-30.662-148.467,52.209c-5.227,7.719,2.869,17.596,11.455,13.968   c20.902-8.832,50.453-15.733,76.339-1.138C143.01,243.712,157.663,152.725,157.663,152.725z"/>
	<path style="fill:#EE534F;" d="M359.272,354.333c0,0,30.662,92.344-52.209,148.467c-7.719,5.227-17.596-2.869-13.968-11.455   c8.832-20.902,15.733-50.453,1.138-76.339C268.285,368.986,359.272,354.333,359.272,354.333z"/>
</g>
<path style="fill:#FFD54F;" d="M103.689,311.404c-132.306,51.363-74.653,171.557-74.653,171.557s120.194,57.654,171.557-74.653  l-27.359-69.546L103.689,311.404z"/>
<path style="fill:#FEA001;" d="M61.551,450.449c-1.495-15.653-0.706-40.196,12.602-64.964c11.249-20.936,30.819-40.085,58.3-57.091  l41.236,9.911l9.91,41.235c-17.167,27.74-36.522,47.42-57.703,58.629C101.358,451.155,77.022,451.907,61.551,450.449z"/>
<path style="fill:#0289CC;" d="M251.833,366.676c-21.986,25.895-51.24,41.632-51.24,41.632  c-15.627-11.532-32.947-26.274-51.788-45.115c-18.842-18.842-33.584-36.161-45.115-51.788c0,0,15.736-29.254,41.632-51.24  L251.833,366.676z"/>
<path style="fill:#029AE6;" d="M486.039,173.663l0.093-0.231L444.01,67.987L338.564,25.864l-0.231,0.093  C275.376,50.695,194.139,105.275,96.99,217.763c0,0-0.164,44.591,76.244,120.999s120.999,76.244,120.999,76.244  C406.721,317.857,461.3,236.619,486.039,173.663z"/>
<path style="fill:#EE534F;" d="M397.549,114.447c27.192,27.192,57.957,47.084,88.584,58.985  c38.524-98.254,4.337-151.905,4.337-151.905s-53.651-34.186-151.905,4.337C350.465,56.491,370.357,87.256,397.549,114.447z"/>
<path style="opacity:0.1;enable-background:new    ;" d="M462.391,117.996l0.108-0.267c15.531-39.614,20.859-72.963,21.21-99.622  c4.476,1.968,6.76,3.421,6.76,3.421s34.186,53.65-4.338,151.906l-0.093,0.231C461.3,236.621,406.72,317.858,294.232,415.007  c0,0-18.199,0.063-51.262-19.806C371.39,283.716,433.933,190.417,462.391,117.996z"/>
<circle style="fill:#FFD54F;" cx="320.23" cy="191.757" r="68.532"/>
<circle style="fill:#FEA001;" cx="320.23" cy="191.757" r="31.275"/>
<path style="fill:#EE534F;" d="M107.342,404.654c73.157-15.363,169.879-105.422,137.651-137.651S122.706,331.496,107.342,404.654z"/>
<path d="M320.203,267.833c20.311,0,39.406-7.909,53.766-22.27c29.646-29.647,29.646-77.885,0-107.532  c-14.361-14.362-33.456-22.27-53.766-22.27c-20.31,0-39.405,7.909-53.765,22.27c-29.646,29.647-29.646,77.885,0,107.532  C280.8,259.924,299.895,267.833,320.203,267.833z M277.051,148.642c11.526-11.526,26.853-17.875,43.153-17.875  c16.302,0,31.627,6.348,43.154,17.875c23.795,23.795,23.795,62.513,0,86.309c-11.526,11.526-26.853,17.874-43.154,17.874  c-16.301,0-31.626-6.348-43.153-17.874C253.255,211.156,253.255,172.438,277.051,148.642z"/>
<path d="M320.204,230.57c10.357,0,20.093-4.033,27.417-11.356c15.117-15.118,15.117-39.717,0-54.835  c-7.323-7.323-17.061-11.356-27.417-11.356c-10.358,0-20.094,4.033-27.418,11.356c-15.117,15.118-15.117,39.717,0,54.835  C300.11,226.537,309.848,230.57,320.204,230.57z M303.4,174.991c4.488-4.489,10.457-6.961,16.806-6.961  c6.348,0,12.317,2.472,16.805,6.961c9.267,9.266,9.267,24.344,0,33.611c-4.488,4.489-10.457,6.961-16.805,6.961  c-6.349,0-12.318-2.472-16.806-6.961C294.132,199.335,294.132,184.257,303.4,174.991z"/>
<path d="M335.759,18.93c-0.013,0.005-0.027,0.008-0.041,0.014l-0.16,0.065c-44.458,17.47-91.151,46.936-138.785,87.579  c-3.152,2.689-3.527,7.426-0.837,10.579c2.647,3.102,7.48,3.483,10.578,0.837c43.962-37.511,86.933-65.174,127.902-82.336  c4.977,11.647,10.91,22.899,17.591,33.658c2.188,3.521,6.814,4.599,10.334,2.413c3.52-2.187,4.6-6.814,2.412-10.334  c-6.127-9.858-11.22-20.108-16.073-30.629c-0.014-0.03-0.264-0.589-0.27-0.587c45.171-16.419,79.572-16.562,100.848-13.619  c19.489,2.695,31.652,8.374,35.671,10.498c2.138,4.046,7.808,16.204,10.501,35.675c2.942,21.276,2.799,55.676-13.619,100.849  c-5.352-2.301-10.617-4.798-15.776-7.503c-18.612-9.755-35.896-21.946-51.562-35.937c-11.804-10.54-22.714-22.029-32.553-34.427  c-2.576-3.246-7.296-3.789-10.542-1.213c-3.137,2.489-3.773,7.316-1.212,10.543c6.863,8.643,14.238,16.932,22.044,24.734  c19.672,19.659,42.358,36.791,67.129,49.728c0.868,0.454,16.907,8.272,16.992,8.068c-5.279,12.604-11.605,25.508-18.852,38.454  c-2.023,3.616-0.732,8.189,2.883,10.213c3.573,2,8.217,0.682,10.213-2.882c8.853-15.817,16.395-31.605,22.384-46.848l0.094-0.231  c0.007-0.017,0.011-0.035,0.018-0.052c0.004-0.011,0.011-0.02,0.015-0.031c39.463-100.65,5.158-156.355,3.68-158.677  c-0.589-0.923-1.373-1.708-2.296-2.296c-2.321-1.48-58.027-35.783-158.677,3.68C335.782,18.918,335.771,18.925,335.759,18.93z"/>
<path d="M110.848,213.31c16.299-18.502,33.162-36.514,50.694-53.852c7.608-7.525,15.178-14.766,22.692-21.687  c3.048-2.807,3.243-7.555,0.436-10.603c-2.809-3.047-7.554-3.243-10.603-0.435c-6.156,5.671-12.349,11.555-18.567,17.624  c-6.769-1.746-20.632-4.644-38.085-4.644c-33.357,0-80.291,10.591-114.463,61.051c-3.563,5.261-3.923,11.737-0.96,17.321  c4.09,7.711,13.487,11.172,21.549,7.766c14.151-5.979,27.542-9.01,39.807-9.01c9.652,0,18.564,1.93,26.548,5.741  c1.274,8.678,6.224,28.747,25.419,58.256c-8.597,10.878-14.396,20.325-16.889,24.612c-41.071,16.5-68.404,41.301-81.241,73.759  c-20.681,52.29,3.993,104.824,5.053,107.035c0.739,1.541,1.981,2.782,3.522,3.521c0.75,0.36,18.666,8.848,43.837,12.045  c4.1,0.521,7.867-2.387,8.389-6.499c0.522-4.112-2.388-7.867-6.499-8.389c-17.545-2.228-31.374-7.379-36.777-9.619  c-4.314-10.462-19.478-52.507-3.522-92.695c10.985-27.667,34.497-49.195,69.928-64.05c0.383-0.161,16.579,20.426,21.01,25.4  c0.208,0.234,0.414,0.469,0.622,0.702c-7.033,12.278-13.174,25.133-17.765,38.53c-0.015,0.042-0.03,0.085-0.044,0.128  c-1.993,5.828-3.763,11.788-4.971,17.832c-0.521,2.48,0.245,5.055,2.037,6.848c1.753,1.753,4.424,2.536,6.849,2.038  c0.038-0.008,0.076-0.018,0.114-0.025c3.837-0.792,7.577-1.783,11.328-2.902c14.288-4.254,29.592-10.987,45.044-19.855  c0.054,0.048,0.108,0.095,0.162,0.143c1.328,1.175,18.428,15.76,25.944,21.491c-19.55,46.667-50.359,72.409-91.637,76.536  c-4.123,0.412-7.132,4.089-6.72,8.213c0.387,3.87,3.649,6.757,7.458,6.757c0.249,0,0.501-0.012,0.755-0.038  c21.646-2.164,41.108-9.704,57.846-22.411c19.807-15.038,35.734-37.369,47.388-66.359c4.28-2.488,13.736-8.291,24.628-16.898  c29.487,19.18,49.551,24.139,58.24,25.418c10.808,22.643,4.347,48.373-3.253,66.357c-2.24,5.302-1.723,11.062,1.421,15.803  c3.16,4.767,8.614,7.729,14.235,7.73c3.328,0,6.589-1.018,9.432-2.942c34.512-23.373,55.259-56.75,59.998-96.519  c3.054-25.638-1.278-47.045-3.599-56.038c35.182-36.074,64.2-71.624,86.684-106.252c2.257-3.476,1.27-8.123-2.207-10.38  c-3.475-2.257-8.121-1.27-10.379,2.207c-23.63,36.394-54.724,73.904-92.834,112.047c-0.223,0.223-0.442,0.445-0.665,0.667  c-10.847,10.824-21.93,21.412-33.246,31.746c-5.633,4.97-11.144,10.076-16.773,15.051c-2.168,1.909-4.349,3.804-6.53,5.698  c-3.626-0.518-11.031-2.052-21.796-6.587c-11.792-4.967-22.961-11.32-33.569-18.453c-2.603-1.75-28.983-22.397-29.133-22.271  c14.607-12.276,28.533-26.108,38.938-42.193c10.445-16.146,20.143-40.032,4.136-56.041c-31.492-31.492-78.553,19.736-97.884,42.696  c-0.112,0.133-0.224,0.261-0.336,0.395c-3.569-4.221-7.048-8.516-10.426-12.891c-16.569-21.511-25.528-38.476-30.308-49.823  c-4.544-10.788-6.076-18.201-6.591-21.794C106.755,217.971,108.797,215.637,110.848,213.31z M356.739,406.888  c-3.364,37.594-21.503,67.785-53.914,89.735c-0.359,0.243-0.691,0.361-1.017,0.361c-0.62,0-1.33-0.417-1.727-1.014  c-0.347-0.524-0.378-1.023-0.105-1.67c8.698-20.586,15.979-50.162,3.566-77.43c0.271-0.237,0.537-0.473,0.808-0.709  c11.628-10.157,23.081-20.52,34.289-31.139c5.517-5.226,10.995-10.493,16.403-15.832  C356.664,378.276,358.103,391.632,356.739,406.888z M129.987,301.43c3.936,5.099,8.016,10.089,12.206,14.982  c0.106,0.124,0.209,0.248,0.316,0.372c-4.077,5.398-7.941,10.908-11.566,16.479c-0.122-0.14-0.247-0.279-0.368-0.418  c-6.19-7.079-12.164-14.35-17.86-21.833c-0.025-0.033-0.048-0.065-0.073-0.098c2.319-3.83,6.276-10.016,11.615-17.1  c1.813,2.484,3.699,4.986,5.641,7.501C129.927,301.352,129.957,301.391,129.987,301.43z M160.98,317.538  c14.349-17.532,31.607-35.726,52.522-45.34c7.749-3.562,19.02-6.932,26.114,0.111c0.013,0.013,0.028,0.024,0.047,0.043  c8.355,8.5,2.371,22.589-2.46,31.247c-8.6,15.412-25.052,33.496-46.352,50.301c-9.049,7.14-18.551,13.72-28.429,19.661  c-11.499,6.916-22.904,12.583-33.802,16.831c-0.04,0.016-0.08,0.031-0.121,0.047c-3.215,1.251-6.468,2.406-9.756,3.452  c-0.309,0.098-0.62,0.202-0.927,0.298c0.023-0.075,0.049-0.151,0.073-0.226c1.837-5.863,4.033-11.603,6.475-17.239  c3.841-8.845,8.557-17.957,14.08-27.141C145.123,338.469,152.684,327.674,160.98,317.538z M218.187,387.744  c-7.084,5.341-13.271,9.297-17.1,11.615c-0.035-0.026-0.069-0.051-0.104-0.078c-4.967-3.778-21.832-18.505-22.253-18.231  c3.261-2.123,14.236-9.871,16.483-11.562C198.648,372.433,213.939,384.645,218.187,387.744z M17.7,212.025  c-0.994,0.419-1.959-0.044-2.451-0.974c-0.443-0.836-0.164-1.441,0.129-1.874c30.482-45.011,72.313-54.459,102.037-54.459  c10.059,0,18.829,1.079,25.387,2.249c-11.721,11.874-23.151,24.036-34.318,36.43c-4.28,4.751-8.525,9.533-12.73,14.351  c-0.208,0.238-0.417,0.473-0.625,0.711C73.35,198.562,46.526,199.846,17.7,212.025z"/>
<g>
</g>
<g>
</g>
<g>
</g>
<g>
</g>
<g>
</g>
<g>
</g>
<g>
</g>
<g>
</g>
<g>
</g>
<g>
</g>
<g>
</g>
<g>
</g>
<g>
</g>
<g>
</g>
<g>
</g>
</svg>
